<svg xmlns="http://www.w3.org/2000/svg" width="1280" height="720" viewBox="0 0 1280 720" role="img" aria-labelledby="title description">
  <title id="title">Ordinal depth map for the fictional lakeside retreat</title>
  <description id="description">Four deterministic grayscale bands: sky 32, far 96, middle 160, and near 224.</description>
  <rect id="sky" width="1280" height="720" fill="#202020" />
  <path id="far" fill="#606060" d="M0 122 C53 113 91 126 134 116 C172 106 201 105 228 87 C261 81 288 111 326 104 C370 108 407 120 440 118 C491 112 527 132 570 131 C624 141 670 157 717 179 C760 198 810 206 855 214 C913 220 965 226 1016 219 C1066 215 1111 231 1150 219 C1206 207 1242 220 1280 220 L1280 720 L0 720 Z" />
  <path id="middle-water" fill="#a0a0a0" d="M0 365 C146 363 287 367 420 365 C525 364 609 369 684 367 C789 366 895 376 1010 384 C1114 391 1208 399 1280 405 L1280 720 L0 720 Z" />
  <path id="middle-retreat" fill="#a0a0a0" d="M578 376 C629 369 669 357 705 337 L730 318 L748 288 L770 303 L791 276 L811 296 L829 264 L855 241 L882 269 L903 282 L1009 291 L1022 266 L1038 226 L1050 281 L1063 207 L1076 283 L1092 235 L1105 284 L1124 198 L1137 281 L1151 219 L1165 286 L1189 190 L1203 281 L1218 214 L1234 284 L1248 184 L1262 275 L1280 188 L1280 405 C1194 405 1112 397 1024 389 C918 380 823 372 738 370 C681 369 628 373 578 376 Z" />
  <path id="near-terrace" fill="#e0e0e0" d="M0 558 C58 548 111 552 170 544 C228 535 283 542 341 548 C409 555 465 566 525 560 C582 554 626 546 680 551 C740 556 795 543 852 535 C913 527 973 521 1024 514 C1088 505 1141 509 1198 520 C1234 526 1260 521 1280 514 L1280 720 L0 720 Z" />
  <path id="near-reeds" fill="#e0e0e0" d="M0 374 C31 388 52 422 76 437 C103 453 123 446 146 464 C173 484 187 502 214 514 C244 528 274 531 306 542 L341 548 C281 564 213 575 151 574 C96 575 43 568 0 558 Z" />
</svg>
